<?xml version="1.0" standalone="no"?>
<!DOCTYPE svg PUBLIC "-//W3C//DTD SVG 20010904//EN"
 "http://www.w3.org/TR/2001/REC-SVG-20010904/DTD/svg10.dtd">
<svg version="1.0" xmlns="http://www.w3.org/2000/svg"
 width="1408.000000pt" height="1408.000000pt" viewBox="0 0 1408.000000 1408.000000"
 preserveAspectRatio="xMidYMid meet">
<metadata>
Created by potrace 1.14, written by Peter Selinger 2001-2017
</metadata>
<g transform="translate(0.000000,1408.000000) scale(0.100000,-0.100000)"
fill="#000000" stroke="none">
<path d="M885 11985 c-34 -7 -83 -23 -110 -36 -46 -22 -144 -77 -155 -89 -3
-3 -24 -18 -48 -34 -72 -49 -221 -203 -245 -253 -5 -13 -14 -23 -19 -23 -4 0
-8 -6 -8 -14 0 -8 -3 -16 -8 -18 -21 -9 -143 -282 -158 -352 -2 -10 -8 -33
-14 -51 -6 -18 -12 -41 -15 -51 -2 -10 -11 -53 -20 -94 -9 -41 -18 -86 -21
-100 -2 -14 -6 -36 -9 -50 -5 -26 -9 -55 -20 -160 -3 -36 -8 -78 -10 -95 -14
-109 -20 -312 -19 -660 0 -479 10 -758 31 -925 4 -30 8 -68 9 -85 3 -25 10
-63 37 -190 2 -5 5 -14 8 -20 3 -5 4 -20 3 -32 0 -13 2 -23 6 -23 4 0 10 -12
13 -27 3 -16 8 -41 12 -58 4 -16 8 -36 8 -42 0 -7 4 -13 9 -13 4 0 8 -7 8 -15
0 -21 43 -148 84 -250 40 -97 150 -320 171 -345 6 -8 15 -22 19 -30 3 -8 14
-27 24 -41 9 -14 27 -41 39 -60 29 -44 55 -79 71 -96 7 -7 11 -13 8 -13 -3 0
2 -8 12 -18 9 -10 31 -36 47 -57 36 -47 149 -169 189 -204 16 -14 47 -44 70
-65 22 -22 79 -69 126 -104 47 -36 87 -68 90 -71 3 -3 17 -12 33 -20 15 -8 27
-18 27 -23 0 -4 4 -8 9 -8 5 0 49 -25 97 -56 97 -60 328 -176 439 -218 39 -15
84 -33 100 -41 17 -7 64 -23 105 -35 41 -12 87 -26 102 -30 35 -11 69 -5 135
26 30 13 56 24 59 24 4 0 28 11 54 24 27 13 51 22 54 19 3 -4 6 -1 6 5 0 7 4
12 10 12 5 0 67 28 137 62 70 34 130 62 133 62 3 1 46 21 95 45 87 42 263 125
335 157 19 9 47 23 62 30 14 8 33 14 42 14 9 0 16 3 16 8 0 4 15 12 33 18 53
19 102 39 107 44 3 3 12 6 20 8 8 2 32 12 55 22 38 17 351 134 445 167 25 8
52 18 60 21 8 3 22 7 30 9 20 5 32 9 50 16 20 7 94 31 100 32 3 0 11 4 18 8 6
5 16 5 22 2 6 -3 10 -1 10 6 0 7 3 10 6 6 3 -3 25 1 47 10 23 8 49 16 58 18 8
2 75 20 149 40 74 20 141 39 149 41 9 2 90 21 181 43 91 22 176 42 190 45 14
3 36 8 50 11 14 3 36 7 50 10 14 3 35 7 48 10 35 8 54 12 92 19 19 3 44 8 55
10 188 37 336 61 353 58 6 -2 12 1 12 5 0 4 15 8 33 9 17 1 52 4 77 7 72 11
111 16 170 22 30 3 77 8 105 11 27 3 54 9 59 14 4 4 15 6 23 3 19 -8 102 17
140 41 36 23 47 52 37 94 -7 28 -53 104 -66 110 -5 2 -8 9 -8 16 0 8 -10 24
-23 37 -12 13 -40 47 -62 74 -22 28 -44 55 -50 61 -12 13 -112 128 -138 158
-28 33 -138 155 -177 196 -19 20 -82 88 -140 150 -128 138 -849 859 -991 990
-56 52 -119 111 -139 130 -21 19 -74 69 -120 110 -45 41 -95 86 -110 100 -15
14 -58 52 -95 85 -38 33 -76 67 -85 75 -8 8 -45 40 -80 70 -36 30 -67 58 -70
61 -3 3 -41 36 -85 73 -44 37 -94 80 -111 94 -18 15 -49 41 -70 58 -52 42
-236 191 -252 205 -7 6 -43 33 -80 62 -209 159 -269 204 -292 219 -14 9 -35
25 -47 37 -12 12 -26 21 -31 21 -5 0 -21 11 -35 24 -14 13 -28 22 -30 20 -2
-2 -12 5 -22 16 -10 11 -22 20 -27 20 -8 0 -20 9 -53 38 -7 6 -16 12 -20 12
-3 0 -21 11 -39 25 -18 14 -38 25 -44 25 -7 0 -12 4 -12 9 0 4 -34 28 -75 52
-41 24 -75 48 -75 52 0 5 -4 5 -10 2 -5 -3 -10 -2 -10 2 0 5 -17 17 -37 28
-21 11 -73 41 -116 67 -43 27 -80 48 -82 48 -2 0 -41 22 -87 50 -46 27 -89 50
-95 50 -7 0 -13 5 -13 10 0 6 -9 10 -19 10 -11 0 -21 4 -23 8 -5 14 -177 92
-268 122 -47 16 -122 35 -167 43 -109 18 -533 20 -618 2z"/>
<path d="M6433 7948 c-32 -8 -59 -40 -48 -58 3 -5 1 -11 -5 -15 -6 -4 -8 -10
-5 -14 4 -8 16 -70 18 -103 1 -10 4 -18 7 -18 3 0 6 -10 7 -22 1 -12 7 -33 12
-47 6 -14 12 -35 14 -46 1 -11 5 -24 8 -30 3 -5 12 -32 19 -60 7 -27 17 -55
21 -61 5 -6 6 -13 3 -16 -3 -3 2 -32 10 -64 24 -98 31 -171 31 -354 0 -167 -7
-249 -29 -350 -3 -14 -7 -36 -10 -50 -12 -56 -61 -205 -68 -208 -4 -2 -8 -11
-8 -21 0 -9 -7 -27 -16 -39 -8 -12 -13 -22 -9 -22 3 0 -9 -28 -27 -62 -18 -35
-33 -65 -34 -68 -1 -7 -14 -40 -24 -65 -30 -68 -38 -159 -17 -185 16 -20 75
-41 83 -29 3 5 11 9 17 7 18 -3 89 12 112 25 11 6 23 12 28 13 4 1 9 3 12 4 3
1 8 3 13 5 4 1 24 9 44 18 21 10 42 17 48 17 5 0 10 3 10 8 0 4 19 16 43 27
23 11 84 44 135 75 51 30 102 59 113 65 10 5 19 13 19 17 0 5 4 8 9 8 9 0 161
105 171 119 3 3 28 24 55 45 134 106 425 402 425 432 0 5 9 16 20 24 11 8 20
20 20 27 0 7 5 13 10 13 6 0 10 5 10 12 0 6 6 19 14 27 41 48 122 237 142 331
11 54 7 142 -10 215 -12 51 -76 149 -121 186 -11 9 -31 26 -44 38 -44 39 -272
139 -331 145 -9 1 -20 5 -25 8 -6 3 -29 9 -52 13 -24 4 -43 10 -43 14 0 4 -8
7 -17 7 -10 1 -34 4 -53 8 -19 4 -60 11 -90 17 -30 6 -64 12 -75 14 -119 23
-481 39 -542 23z"/>
<path d="M2032 6450 c-44 -10 -101 -51 -195 -140 -43 -41 -83 -76 -88 -78 -5
-2 -9 -8 -9 -12 0 -5 -19 -29 -42 -54 -24 -24 -65 -73 -92 -108 -27 -34 -54
-68 -60 -73 -6 -6 -15 -18 -21 -27 -5 -9 -30 -46 -55 -84 -25 -37 -44 -71 -43
-76 2 -4 -2 -8 -8 -8 -5 0 -15 -13 -20 -30 -6 -16 -16 -30 -22 -30 -6 0 -8 -3
-5 -6 4 -3 -7 -32 -23 -63 -34 -70 -62 -141 -89 -224 -11 -34 -25 -77 -31 -95
-6 -18 -12 -45 -15 -60 -2 -15 -11 -56 -18 -92 -8 -36 -14 -72 -14 -80 0 -8
-2 -27 -5 -42 -15 -77 -27 -448 -14 -448 5 0 5 -5 1 -11 -4 -7 -6 -30 -6 -53
2 -69 12 -327 16 -401 8 -146 18 -291 22 -325 2 -19 6 -66 9 -105 3 -38 8 -86
10 -105 2 -19 7 -71 11 -115 3 -44 8 -83 10 -87 2 -3 6 -30 9 -60 5 -45 14
-111 41 -298 8 -56 13 -82 23 -135 15 -73 18 -84 34 -147 8 -31 12 -59 9 -62
-3 -3 0 -6 6 -6 7 0 12 -6 12 -14 0 -8 5 -27 12 -43 6 -15 12 -33 13 -39 3
-14 78 -168 85 -174 3 -3 20 -27 39 -55 84 -123 259 -258 361 -279 14 -2 48
-9 75 -15 69 -13 304 -6 397 13 90 18 191 49 266 83 28 12 52 19 52 15 0 -4 4
-1 9 6 4 7 14 14 22 16 8 1 29 10 46 19 18 10 34 16 36 15 2 -2 10 2 18 9 8 6
37 23 64 38 95 52 150 86 280 174 61 40 124 84 140 97 55 43 80 63 120 93 22
17 47 36 55 43 8 7 41 36 75 63 96 80 109 91 255 225 151 138 549 542 650 660
12 14 54 61 95 105 40 44 83 93 96 109 12 16 32 38 43 50 21 21 53 58 133 152
23 27 51 60 62 73 12 13 21 29 21 34 0 6 3 7 6 4 4 -3 20 13 37 36 17 23 33
44 37 47 3 3 39 46 80 95 41 50 77 92 80 95 3 3 18 22 33 43 16 20 39 50 52
65 14 15 28 32 32 37 14 17 87 109 98 122 6 7 15 18 20 25 21 27 147 185 193
243 26 33 50 62 55 63 4 2 7 10 7 17 0 7 3 15 8 17 19 8 322 410 322 427 0 6
4 11 8 11 11 0 92 136 92 155 0 7 4 17 10 20 6 3 10 25 10 49 0 46 -16 67 -60
82 -42 13 -51 14 -155 14 -96 -1 -153 -4 -260 -14 -217 -22 -823 -29 -1035
-13 -189 15 -271 23 -340 32 -25 3 -65 8 -90 11 -47 5 -78 10 -132 20 -18 3
-49 7 -68 9 -19 1 -46 5 -60 9 -14 3 -38 8 -55 10 -16 3 -41 7 -55 10 -14 4
-42 8 -64 11 -21 3 -41 7 -46 10 -4 2 -22 7 -41 10 -66 10 -194 38 -199 44 -3
3 -14 7 -25 8 -11 2 -27 4 -35 6 -8 3 -34 8 -57 12 -24 4 -43 12 -43 18 0 6
-3 8 -6 5 -11 -11 -454 123 -483 146 -8 6 -16 10 -17 9 -8 -5 -264 94 -374
145 -41 19 -79 35 -85 36 -5 1 -15 5 -21 8 -6 4 -31 14 -55 22 -102 34 -145
42 -177 36z"/>
<path d="M12539 5546 c-2 -2 -45 -7 -96 -10 -51 -4 -132 -17 -180 -30 -87 -23
-185 -63 -191 -78 -2 -4 -9 -8 -15 -8 -7 0 -28 -15 -48 -33 -21 -17 -45 -39
-55 -48 -46 -40 -125 -132 -148 -172 -23 -38 -62 -138 -64 -160 0 -4 -3 -26
-7 -48 -4 -23 -9 -71 -10 -108 -2 -36 -4 -66 -5 -66 -5 0 -11 -264 -12 -565
-1 -468 7 -565 62 -705 6 -16 12 -32 12 -35 2 -10 52 -87 92 -140 93 -124 196
-195 351 -244 81 -25 148 -40 240 -52 65 -9 645 -12 645 -4 0 4 6 7 13 7 45 1
173 30 217 49 115 51 196 108 290 203 163 166 223 322 224 576 0 129 -4 164
-25 260 -15 64 -58 161 -100 222 -55 80 -216 232 -246 233 -7 0 -13 4 -13 9 0
9 -121 66 -165 76 -49 11 -56 12 -139 20 -133 12 -258 15 -590 17 l-318 1 5
36 c3 20 9 50 12 66 4 17 7 38 8 48 1 9 5 17 9 17 4 0 8 7 8 15 0 29 88 148
122 166 48 26 126 33 360 33 109 1 198 5 198 9 0 5 5 5 12 1 13 -9 86 -9 94
-1 3 3 16 2 29 -3 13 -5 25 -7 28 -4 3 3 45 7 95 9 101 4 190 26 214 52 33 38
38 91 24 283 -3 36 -5 73 -5 83 -1 14 -9 18 -43 17 -24 0 -232 2 -464 5 -231
3 -422 4 -425 1z m441 -1271 c63 -12 115 -27 145 -42 44 -23 95 -80 118 -132
20 -44 23 -57 31 -129 2 -18 7 -36 10 -39 3 -3 1 -12 -5 -19 -7 -8 -7 -14 1
-19 6 -3 8 -10 6 -14 -3 -4 -8 -32 -11 -62 -11 -96 -10 -88 -33 -149 -3 -8 -6
-17 -6 -20 -4 -20 -30 -70 -37 -70 -4 0 -10 -9 -14 -20 -8 -26 -63 -58 -108
-64 -20 -2 -41 -7 -47 -11 -5 -3 -10 0 -10 7 0 8 -3 9 -8 2 -4 -6 -67 -9 -177
-8 -276 4 -373 15 -420 46 -34 23 -85 89 -85 110 0 8 -4 18 -9 24 -6 5 -12 20
-15 34 -3 14 -10 43 -16 65 -15 57 -19 86 -24 207 -3 60 -8 112 -11 118 -3 5
-3 10 2 10 4 0 7 43 5 96 l-2 96 342 -5 c189 -3 359 -8 378 -12z"/>
<path d="M7417 4713 c-2 -1 -86 -5 -187 -8 -253 -9 -268 -10 -275 -16 -11 -11
-20 -1268 -10 -1434 10 -172 21 -199 87 -213 45 -10 365 -9 375 2 3 3 14 1 24
-5 13 -6 19 -6 19 1 0 5 5 9 12 8 15 -4 15 -2 24 252 7 200 10 291 13 338 l1
24 168 -6 c174 -5 182 -6 266 -30 40 -12 64 -29 111 -77 92 -94 96 -100 155
-180 30 -41 57 -76 60 -79 7 -7 29 -42 37 -60 4 -8 15 -24 25 -34 10 -11 40
-54 68 -95 l49 -76 193 1 c212 2 306 8 356 25 37 12 38 22 7 90 -36 80 -152
272 -237 392 -26 37 -48 69 -48 72 0 3 -8 14 -17 24 -10 11 -34 41 -53 68 -19
26 -45 59 -58 73 -12 14 -37 47 -54 74 l-32 49 22 17 c12 10 22 23 22 29 0 6
4 11 8 11 5 0 42 46 83 101 41 56 89 121 107 145 17 25 32 48 32 53 0 5 3 11
8 13 9 4 75 98 68 98 -3 0 6 12 19 26 14 15 25 33 25 40 0 8 5 14 10 14 6 0
10 7 10 15 0 8 3 15 8 15 4 0 18 21 31 48 14 26 29 52 35 57 6 6 21 31 33 57
30 63 32 61 -122 73 -109 9 -475 11 -475 4 0 -3 -16 -27 -35 -53 -20 -25 -32
-46 -28 -46 4 0 3 -4 -2 -8 -15 -11 -65 -79 -65 -89 0 -5 -8 -18 -17 -29 -10
-10 -40 -50 -66 -89 -140 -205 -220 -262 -392 -280 -98 -11 -294 -19 -300 -13
-3 3 -7 116 -20 492 -2 59 -7 111 -10 114 -6 6 -63 10 -68 5z"/>
<path d="M9345 4710 c-28 -5 -29 -7 -30 -63 -1 -32 2 -60 5 -62 6 -4 5 -50 0
-50 -5 0 -6 -181 -1 -190 8 -15 9 -45 1 -50 -11 -7 1 -420 15 -535 8 -57 16
-112 19 -125 2 -5 6 -23 11 -40 10 -42 67 -167 82 -183 7 -8 18 -23 24 -34 21
-39 123 -149 174 -188 44 -33 169 -90 195 -89 3 0 18 -5 34 -11 16 -6 45 -13
65 -16 20 -3 43 -7 51 -9 14 -4 70 -10 175 -20 28 -3 104 -7 170 -10 135 -6
253 -13 305 -19 19 -2 64 -7 100 -10 81 -9 94 -22 75 -77 -32 -89 -75 -161
-130 -215 -53 -53 -99 -61 -409 -69 -109 -3 -202 -8 -207 -11 -5 -3 -9 -1 -9
3 0 5 -29 6 -65 3 -40 -3 -67 -2 -69 5 -2 5 -5 4 -5 -3 -1 -7 -6 -10 -12 -6
-7 4 -37 6 -68 5 -31 -1 -75 -2 -97 -2 l-41 -1 0 -202 c0 -110 2 -205 4 -211
4 -11 163 -12 181 -1 7 4 12 4 12 -1 0 -11 802 -4 818 8 1 1 11 3 22 4 11 1
23 4 28 5 4 1 12 3 17 4 58 11 85 20 85 29 0 6 3 7 7 4 3 -4 17 0 30 8 13 9
23 13 23 10 0 -3 18 6 40 20 22 14 44 25 50 25 5 0 10 4 10 9 0 5 8 12 18 15
34 11 212 195 212 219 0 3 11 23 25 43 14 20 22 40 19 45 -3 5 -1 9 3 9 10 0
39 80 48 130 3 19 8 36 10 39 3 2 0 10 -6 18 -6 7 -7 13 -2 13 5 0 9 15 10 33
7 241 13 348 18 357 3 5 2 10 -4 10 -6 0 -6 11 -1 29 5 19 4 33 -3 40 -8 8 -8
11 1 11 8 0 9 7 2 25 -5 14 -6 25 -2 25 10 0 10 1294 0 1301 -4 3 -29 4 -55 3
-131 -7 -365 -16 -421 -16 l-64 -1 5 -31 c2 -17 0 -39 -5 -48 -5 -11 -5 -25 2
-37 7 -14 6 -21 -3 -24 -8 -4 -9 -6 0 -6 8 -1 9 -10 3 -30 -4 -15 -4 -34 0
-42 5 -7 6 -18 2 -23 -3 -6 -7 -107 -9 -226 -5 -377 -11 -735 -12 -741 -1 -7
-558 -2 -631 6 -74 7 -124 17 -144 27 -31 17 -76 61 -76 75 0 7 -4 13 -9 13
-10 0 -49 119 -56 170 -2 19 -7 47 -10 62 -3 15 -7 70 -9 121 -2 52 -6 99 -10
106 -4 6 -2 19 3 29 6 11 8 22 5 25 -10 9 -11 97 -1 97 4 0 5 5 1 11 -11 18
-11 159 1 159 6 0 7 3 0 8 -5 4 -10 21 -10 37 0 17 5 33 10 37 7 5 6 8 0 8 -6
0 -11 9 -11 20 0 11 5 20 11 20 6 0 7 3 0 8 -12 8 -14 102 -2 102 4 0 5 5 1
11 -4 7 -7 25 -6 40 0 23 -4 29 -21 30 -118 3 -490 3 -512 -1z"/>
<path d="M14063 4713 c-10 -3 -13 -56 -13 -214 0 -179 2 -209 15 -209 13 0 15
31 15 215 0 118 -1 215 -2 214 -2 0 -9 -3 -15 -6z"/>
</g>
</svg>
